# xmcd
#
# Track frame offsets:
#	150
#	13635
#	30399
#	49328
#	63169
#	76028
#	91392
#	103820
#	117516
#	129701
#	144070
#	154952
#	167503
#	179669
#	192837
#	205484
#	219310
#	233479
#	244804
#	256336
#	267994
#
# Disc length: 3732 seconds
#
# Revision: 5
# Processed by: cddbd v1.5PL3 Copyright (c) Steve Scherf et al.
# Submitted via: EasyCDDAExtractor 6.5.2.1
#
DISCID=200e9215
DTITLE=Mixed - Svenska Schlagervinnarna 1958-2003
DYEAR=2004
DGENRE=Pop
TTITLE0=Fångad I En Dröm (137)
TTITLE1=Just Nu (107)
TTITLE2=Satellit (78)
TTITLE3=Det Blir Alltid Värre Framåt Natten (109)
TTITLE4=Beatles (90)
TTITLE5=Jennie, Jennie (146)
TTITLE6=Waterloo (150)
TTITLE7=Sommar'n Som Aldrig Säger Nej (158)
TTITLE8=Härliga Sommardag (111)
TTITLE9=Vita Vidder (88)
TTITLE10=Judy Min Vän (90)
TTITLE11=Det Börjar Verka Kärlek, Banne Mig (120)
TTITLE12=Som En Dröm (soft)
TTITLE13=Nygammal Vals (89)
TTITLE14=Annorstädes Vals (soft)
TTITLE15=En Gång I Stockholm (104)
TTITLE16=Sol Och Vår (122)
TTITLE17=April April (soft)
TTITLE18=Alla Andra Får Varann (soft)
TTITLE19=Augustin (soft)
TTITLE20=Lilla Stjärna (115)
EXTD=YEAR: 2003
EXTT0=
EXTT1=
EXTT2=
EXTT3=
EXTT4=
EXTT5=
EXTT6=
EXTT7=
EXTT8=
EXTT9=
EXTT10=
EXTT11=
EXTT12=
EXTT13=
EXTT14=
EXTT15=
EXTT16=
EXTT17=
EXTT18=
EXTT19=
EXTT20=
PLAYORDER=
